# xmcd CD database file
#
# Track frame offsets:
#	150
#	31462
#	53700
#	65300
#	106600
#	133410
#	159207
#	206532
#	238265
#	282127
#
# Disc length: 4097 seconds
#
# Revision: 0
# Processed by: cddbd v1.5.1PL0 Copyright (c) Steve Scherf et al.
# Submitted via: CDex 1.51
#
DISCID=860fff0a
DTITLE=Madcat and the Cats - Live at the Ark
DYEAR=2000
DGENRE=Blues
TTITLE0=St. Lois Blues
TTITLE1=Watching the World Roll By
TTITLE2=La Cucaracha
TTITLE3=Take Five
TTITLE4=Kwahari
TTITLE5=Jericho
TTITLE6=Driftin' and Driftin'
TTITLE7=On the Road Again
TTITLE8=Mountain Soup
TTITLE9=When The Saints Go Marching In
EXTD=YEAR: 2000
EXTT0=
EXTT1=
EXTT2=
EXTT3=
EXTT4=
EXTT5=
EXTT6=
EXTT7=
EXTT8=
EXTT9=
PLAYORDER=
